HIERARCHY
ROOT Hips
{
	OFFSET 0.000000 0.000000 0.000000
	CHANNELS 6 Xposition Yposition Zposition Xrotation Yrotation Zrotation
	JOINT LeftUpLeg_virtual
	{
		OFFSET 0.000000 0.000000 0.000000
		CHANNELS 3 Xrotation Yrotation Zrotation
		JOINT LeftUpLeg
		{
			OFFSET 13.026900 -6.336304 -1.092800
			CHANNELS 3 Xrotation Yrotation Zrotation
			JOINT LeftLeg
			{
				OFFSET 0.524474 -46.096886 9.782700
				CHANNELS 3 Xrotation Yrotation Zrotation
				JOINT LeftFoot
				{
					OFFSET -0.524474 -53.427422 -12.948200
					CHANNELS 3 Xrotation Yrotation Zrotation
					JOINT LeftToeBase
					{
						OFFSET 0.192200 -14.009700 16.364100
						CHANNELS 3 Xrotation Yrotation Zrotation
						JOINT LeftToe_End
						{
							OFFSET -1.784700 -0.561700 9.474800
							CHANNELS 3 Xrotation Yrotation Zrotation
							End Site
							{
								OFFSET 0 0 0
							}
						}
					}
				}
			}
		}
	}
	JOINT RightUpLeg_virtual
	{
		OFFSET 0.000000 0.000000 0.000000
		CHANNELS 3 Xrotation Yrotation Zrotation
		JOINT RightUpLeg
		{
			OFFSET -12.883000 -6.336304 -1.092800
			CHANNELS 3 Xrotation Yrotation Zrotation
			JOINT RightLeg
			{
				OFFSET -0.524587 -46.096825 9.782800
				CHANNELS 3 Xrotation Yrotation Zrotation
				JOINT RightFoot
				{
					OFFSET 0.524587 -53.427383 -12.948300
					CHANNELS 3 Xrotation Yrotation Zrotation
					JOINT RightToeBase
					{
						OFFSET -0.192200 -14.009700 16.364100
						CHANNELS 3 Xrotation Yrotation Zrotation
						JOINT RightToe_End
						{
							OFFSET 1.784700 -0.561700 9.474800
							CHANNELS 3 Xrotation Yrotation Zrotation
							End Site
							{
								OFFSET 0 0 0
							}
						}
					}
				}
			}
		}
	}
	JOINT Spine_virtual
	{
		OFFSET 0.000000 0.000000 0.000000
		CHANNELS 3 Xrotation Yrotation Zrotation
		JOINT Spine
		{
			OFFSET 0.072000 7.257294 -0.789700
			CHANNELS 3 Xrotation Yrotation Zrotation
			JOINT Spine1
			{
				OFFSET 0.000000 12.508769 -0.658067
				CHANNELS 3 Xrotation Yrotation Zrotation
				JOINT Spine1_split
				{
					OFFSET 0.000000 12.508769 -0.658067
					CHANNELS 3 Xrotation Yrotation Zrotation
					JOINT Spine2
					{
						OFFSET 0.000000 12.508769 -0.658067
						CHANNELS 3 Xrotation Yrotation Zrotation
						JOINT Neck_virtual
						{
							OFFSET 0.000000 0.000000 0.000000
							CHANNELS 3 Xrotation Yrotation Zrotation
							JOINT Neck
							{
								OFFSET 0.000000 14.033295 7.520400
								CHANNELS 3 Xrotation Yrotation Zrotation
								JOINT Head
								{
									OFFSET 0.000000 8.198502 5.703100
									CHANNELS 3 Xrotation Yrotation Zrotation
									JOINT HeadTop_End
									{
										OFFSET 0.000000 17.760803 13.332701
										CHANNELS 3 Xrotation Yrotation Zrotation
										End Site
										{
											OFFSET 0 0 0
										}
									}
								}
							}
						}
						JOINT LeftShoulder_virtual
						{
							OFFSET 0.000000 0.000000 0.000000
							CHANNELS 3 Xrotation Yrotation Zrotation
							JOINT LeftShoulder
							{
								OFFSET 6.292450 5.785301 -0.669000
								CHANNELS 3 Xrotation Yrotation Zrotation
								JOINT LeftShoulder_split
								{
									OFFSET 6.292450 5.785301 -0.669000
									CHANNELS 3 Xrotation Yrotation Zrotation
									JOINT LeftArm
									{
										OFFSET 13.907140 -6.093903 1.965100
										CHANNELS 3 Xrotation Yrotation Zrotation
										JOINT LeftForeArm
										{
											OFFSET 34.140198 0.000000 0.000000
											CHANNELS 3 Xrotation Yrotation Zrotation
											JOINT LeftHand
											{
												OFFSET 40.960209 0.000000 0.000000
												CHANNELS 3 Xrotation Yrotation Zrotation
												End Site
												{
													OFFSET 0 0 0
												}
											}
										}
									}
								}
							}
						}
						JOINT RightShoulder_virtual
						{
							OFFSET 0.000000 0.000000 0.000000
							CHANNELS 3 Xrotation Yrotation Zrotation
							JOINT RightShoulder
							{
								OFFSET -6.292450 5.785301 -0.669000
								CHANNELS 3 Xrotation Yrotation Zrotation
								JOINT RightShoulder_split
								{
									OFFSET -6.292450 5.785301 -0.669000
									CHANNELS 3 Xrotation Yrotation Zrotation
									JOINT RightArm
									{
										OFFSET -13.907140 -6.093903 1.965100
										CHANNELS 3 Xrotation Yrotation Zrotation
										JOINT RightForeArm
										{
											OFFSET -34.140198 0.000000 0.000000
											CHANNELS 3 Xrotation Yrotation Zrotation
											JOINT RightHand
											{
												OFFSET -40.960209 0.000000 0.000000
												CHANNELS 3 Xrotation Yrotation Zrotation
												End Site
												{
													OFFSET 0 0 0
												}
											}
										}
									}
								}
							}
						}
					}
				}
			}
		}
	}
}
MOTION
Frames: 9
Frame Time: 0.03333333
16.599394 99.687820 4.538986 0.000000 0.000000 0.000000 9.465143 -2.089691 -10.391276 -54.742324 -9.017502 27.395621 53.532670 -2.905646 -3.255713 -0.780505 2.004690 -13.446641 -2.312877 -0.292842 0.316464 0.000000 0.000000 0.000000 10.078712 -0.863309 -11.129537 -29.452616 -23.180503 -0.225838 43.526214 5.139992 -1.056249 -16.937312 -18.474883 -4.635174 -0.619960 0.227033 -0.229444 0.000000 0.000000 0.000000 8.285709 0.396555 -11.547362 7.719592 -3.367643 -7.261808 5.383463 -1.735069 -6.269700 1.150443 1.190293 0.518029 0.000000 0.000000 0.000000 7.767132 -1.807674 -6.397538 -6.822674 0.243401 -6.895007 -29.489191 -12.395129 13.110797 0.000000 0.000000 0.000000 6.624543 -1.544102 -6.094463 0.811506 -5.553932 -7.978253 -0.739305 -4.164611 0.525879 -26.826430 7.601183 -19.294195 2.499390 -59.375613 2.451885 0.000000 0.000000 0.000000 6.367122 -1.889535 -6.057090 1.857202 -2.045791 3.950701 6.480285 3.954737 -3.199682 24.773453 -8.909792 81.665717 9.106338 80.371341 -8.224916 0.000000 0.000000 0.000000 
16.719780 98.759583 3.633583 0.000000 0.000000 0.000000 9.185302 -3.287205 -9.682159 -54.825669 -8.980890 27.078857 54.765389 -1.952610 -3.306250 -1.413168 2.514956 -13.559033 -1.955998 -0.220965 0.329078 0.000000 0.000000 0.000000 9.690794 -1.872729 -10.403236 -31.234131 -21.482852 -0.002866 45.395855 4.243684 -1.007624 -17.392655 -19.008693 -5.143385 -0.606301 0.297438 -0.245528 0.000000 0.000000 0.000000 7.974117 -0.920164 -10.938659 8.528320 -2.968049 -6.791386 5.938931 -1.480922 -5.984162 1.263904 1.166572 0.607429 0.000000 0.000000 0.000000 8.053000 -1.581543 -6.129675 -5.952709 0.030167 -6.717304 -28.586370 -12.023622 12.784788 0.000000 0.000000 0.000000 7.033371 -1.370033 -5.979469 0.849283 -5.668964 -8.849252 -0.646096 -4.207557 0.730515 -24.023010 12.041565 -22.850645 2.030011 -57.050774 2.121408 0.000000 0.000000 0.000000 6.931714 -1.629325 -5.772504 1.853327 -0.893007 4.700891 6.113981 3.552049 -3.136809 21.727146 -5.884765 80.093722 6.644934 76.520686 -5.829350 0.000000 0.000000 0.000000 
16.649752 98.261131 2.805019 0.000000 0.000000 0.000000 8.900074 -4.335748 -9.057909 -54.555675 -8.897630 26.748631 55.312801 -0.880913 -3.434908 -1.999094 3.014212 -13.626182 -1.704483 -0.140041 0.234478 0.000000 0.000000 0.000000 9.206257 -2.912096 -9.724311 -32.731192 -19.943994 0.250564 46.706459 3.433304 -0.903238 -17.530350 -19.308152 -5.473857 -0.359881 0.372027 -0.248927 0.000000 0.000000 0.000000 7.626158 -2.440921 -10.339809 9.172734 -2.634351 -6.460988 6.357406 -1.272991 -5.736981 1.390140 1.166349 0.535241 0.000000 0.000000 0.000000 8.183361 -1.398222 -5.872983 -5.243366 -0.040794 -6.584467 -27.103914 -11.486069 12.600810 0.000000 0.000000 0.000000 7.277007 -1.216001 -5.886652 0.890465 -5.720406 -9.665132 -0.755762 -3.900783 0.966953 -21.196792 15.214371 -26.892253 1.469343 -53.702171 1.710149 0.000000 0.000000 0.000000 7.376946 -1.398092 -5.536827 1.806176 0.177494 5.491474 5.670311 3.332022 -2.976657 18.720264 -3.062311 78.268668 5.239153 72.890816 -4.521102 0.000000 0.000000 0.000000 
16.453075 98.175728 2.151096 0.000000 0.000000 0.000000 8.508617 -5.291026 -8.546577 -53.975959 -8.891266 26.443549 55.425319 0.090240 -3.571152 -2.363863 3.330974 -13.732312 -1.563333 -0.060848 0.045664 0.000000 0.000000 0.000000 8.693614 -3.949594 -9.164642 -33.859345 -18.536708 0.641586 47.393330 2.795834 -0.823337 -17.129756 -19.350995 -5.474152 -0.292730 0.435540 -0.227594 0.000000 0.000000 0.000000 7.219487 -4.133309 -9.769430 9.571444 -2.360405 -6.264076 6.581659 -1.114957 -5.542401 1.409825 1.274221 0.349048 0.000000 0.000000 0.000000 8.102225 -1.251916 -5.661648 -4.648021 -0.034194 -6.489154 -25.020803 -10.893881 12.606421 0.000000 0.000000 0.000000 7.322120 -1.092191 -5.822325 0.931471 -5.664645 -10.419185 -0.956681 -3.476002 1.127352 -18.449505 16.990954 -31.005470 0.972776 -49.809875 1.341297 0.000000 0.000000 0.000000 7.632831 -1.193106 -5.370049 1.722845 1.105351 6.349197 5.358733 3.337153 -2.758126 15.808126 -0.480274 76.441353 4.305819 69.487380 -3.700121 0.000000 0.000000 0.000000 
16.188669 98.450127 1.602520 0.000000 0.000000 0.000000 7.931884 -6.251872 -8.186438 -52.998583 -8.985558 26.193154 55.279033 0.876358 -3.662746 -2.523447 3.430011 -13.703059 -1.490474 -0.003043 -0.155834 0.000000 0.000000 0.000000 8.124708 -5.040247 -8.730414 -34.503968 -17.160423 1.246983 47.277436 2.313446 -0.811331 -16.203838 -19.186273 -5.343939 -0.502652 0.462381 -0.166536 0.000000 0.000000 0.000000 6.706106 -5.935798 -9.265305 9.661880 -2.125520 -6.170065 6.596440 -1.006679 -5.406571 1.426468 1.532135 0.151257 0.000000 0.000000 0.000000 7.789610 -1.136572 -5.511959 -4.053881 -0.006691 -6.381651 -22.248711 -10.343874 12.811510 0.000000 0.000000 0.000000 7.178992 -1.002731 -5.784894 0.967772 -5.508961 -11.142251 -1.399647 -3.002122 1.090928 -15.904417 17.447764 -34.780710 0.676222 -46.014230 1.104809 0.000000 0.000000 0.000000 7.641274 -1.019802 -5.282385 1.632717 1.848357 7.242676 5.169550 3.487885 -2.609405 13.088440 1.926698 74.770060 3.637819 66.414144 -3.126509 0.000000 0.000000 0.000000 
15.823073 99.063133 1.224792 0.000000 0.000000 0.000000 7.123869 -7.072282 -7.964842 -51.467907 -9.044944 26.073646 54.801746 1.529150 -3.704795 -2.645772 3.438877 -13.444760 -1.364033 0.038422 -0.319034 0.000000 0.000000 0.000000 7.435803 -6.104338 -8.417067 -34.616454 -15.814509 2.023389 46.337841 1.911132 -0.865717 -14.875747 -18.872371 -5.264564 -0.809050 0.439143 -0.071525 0.000000 0.000000 0.000000 5.980818 -7.686664 -8.838970 9.442880 -1.934040 -6.139100 6.398927 -0.960876 -5.325382 1.328193 1.838981 0.017150 0.000000 0.000000 0.000000 7.269161 -1.064581 -5.424183 -3.371638 -0.002350 -6.214180 -18.731097 -9.864896 13.222032 0.000000 0.000000 0.000000 6.858306 -0.970812 -5.764704 0.992209 -5.270922 -11.830619 -1.998885 -2.601970 0.843072 -13.820485 16.744113 -37.890778 0.644797 -42.828974 1.036386 0.000000 0.000000 0.000000 7.394488 -0.900815 -5.269462 1.545034 2.357363 8.138300 5.031813 3.568014 -2.510322 10.736688 4.137113 73.236314 3.128409 64.030879 -2.694898 0.000000 0.000000 0.000000 
15.406157 99.968567 0.920696 0.000000 0.000000 0.000000 6.113787 -7.901573 -7.859559 -49.326390 -8.895702 26.115560 53.934350 2.114264 -3.698260 -2.863787 3.390318 -12.976776 -1.302863 0.058773 -0.379443 0.000000 0.000000 0.000000 6.549208 -7.114899 -8.244615 -34.181221 -14.554959 2.900580 44.682869 1.480894 -0.967251 -13.162306 -18.465635 -5.184899 -1.214246 0.374207 0.018449 0.000000 0.000000 0.000000 4.971722 -9.250057 -8.517641 8.961732 -1.780065 -6.128456 6.033388 -0.989531 -5.281344 1.201892 2.144342 -0.010373 0.000000 0.000000 0.000000 6.584688 -1.041744 -5.385033 -2.552389 -0.032276 -5.957890 -14.544222 -9.464278 13.824455 0.000000 0.000000 0.000000 6.373860 -1.001999 -5.749671 0.990218 -5.051693 -12.453947 -2.688203 -2.348821 0.402164 -12.566019 15.024593 -40.095181 0.855976 -40.419181 1.098845 0.000000 0.000000 0.000000 6.939233 -0.861742 -5.301632 1.462220 2.624728 9.021645 4.899830 3.540693 -2.503633 8.915641 6.180387 71.781101 2.742764 62.591512 -2.380159 0.000000 0.000000 0.000000 
14.933808 101.104843 0.623474 0.000000 0.000000 0.000000 4.956594 -8.777525 -7.826778 -46.691153 -8.405831 26.271197 52.802167 2.655340 -3.622781 -3.272510 3.353550 -12.260975 -1.465472 0.063625 -0.321264 0.000000 0.000000 0.000000 5.441798 -8.007890 -8.163485 -33.214141 -13.461284 3.787750 42.499510 1.011382 -1.089775 -11.093760 -17.998711 -4.972663 -1.650205 0.281630 0.039357 0.000000 0.000000 0.000000 3.682732 -10.527180 -8.312096 8.313776 -1.667690 -6.093239 5.560597 -1.097345 -5.254640 1.133942 2.437611 -0.048725 0.000000 0.000000 0.000000 5.820472 -1.078345 -5.365354 -1.640497 -0.107479 -5.575767 -9.885067 -9.143896 14.547623 0.000000 0.000000 0.000000 5.788061 -1.093714 -5.721382 0.967762 -4.936234 -12.976886 -3.363266 -2.119560 -0.173762 -12.367034 12.388379 -41.342432 1.182212 -38.493095 1.219481 0.000000 0.000000 0.000000 6.358965 -0.915107 -5.348013 1.385301 2.680642 9.841758 4.633487 3.480551 -2.563123 7.781611 8.072559 70.252348 2.460534 62.220845 -2.133820 0.000000 0.000000 0.000000 
14.388679 102.373306 0.310772 0.000000 0.000000 0.000000 3.706409 -9.724205 -7.786884 -43.883269 -7.514353 26.427808 51.745599 3.131202 -3.473986 -3.904399 3.379922 -11.301686 -1.720007 0.053782 -0.230880 0.000000 0.000000 0.000000 4.131541 -8.727693 -8.146225 -31.768788 -12.666475 4.619245 40.016808 0.502333 -1.224231 -8.855558 -17.421635 -4.588682 -1.995165 0.197955 -0.014989 0.000000 0.000000 0.000000 2.153205 -11.448002 -8.217268 7.594686 -1.586569 -6.003180 5.054434 -1.264367 -5.219700 1.028520 2.614141 -0.015844 0.000000 0.000000 0.000000 5.040267 -1.158900 -5.340376 -0.761027 -0.225259 -5.065515 -5.150063 -8.819330 15.262046 0.000000 0.000000 0.000000 5.165528 -1.219050 -5.658133 0.916743 -5.026037 -13.298815 -3.641097 -1.928295 -0.627261 -13.235506 8.853100 -41.726876 1.478235 -36.522292 1.315085 0.000000 0.000000 0.000000 5.749028 -1.031557 -5.378317 1.304693 2.603986 10.589730 4.308687 3.525788 -2.545179 7.267464 9.777655 68.477311 2.231327 62.530245 -1.906369 0.000000 0.000000 0.000000 
